<?xml version="1.0" standalone="no"?>
<!DOCTYPE svg PUBLIC "-//W3C//DTD SVG 20010904//EN"
 "http://www.w3.org/TR/2001/REC-SVG-20010904/DTD/svg10.dtd">
<svg version="1.0" xmlns="http://www.w3.org/2000/svg"
 width="251.000000pt" height="251.000000pt" viewBox="0 0 251.000000 251.000000"
 preserveAspectRatio="xMidYMid meet">
<metadata>
Created by potrace 1.11, written by Peter Selinger 2001-2013
</metadata>
<g transform="translate(0.000000,251.000000) scale(0.100000,-0.100000)"
fill="#000000" stroke="none">
<path d="M1096 2495 c18 -15 17 -16 -11 -10 -71 12 -133 8 -173 -13 -52 -27
-144 -118 -170 -167 -11 -22 -37 -53 -56 -68 -20 -15 -36 -34 -36 -41 0 -7
-11 -23 -25 -36 -14 -13 -25 -35 -25 -50 0 -27 -26 -55 -66 -70 -28 -11 -33
-40 -6 -40 16 -1 16 -1 0 -14 -24 -18 -23 -29 2 -16 25 13 25 7 1 -44 -41 -87
-49 -150 -40 -326 5 -91 10 -196 12 -235 3 -82 52 -321 72 -351 8 -12 31 -30
52 -40 32 -16 39 -26 48 -69 13 -58 43 -120 79 -162 31 -36 45 -95 53 -222 6
-87 5 -95 -10 -83 -8 7 -37 15 -64 17 -67 4 -103 15 -103 30 0 23 -44 27 -62
4 -10 -12 -37 -23 -65 -28 -80 -14 -179 -69 -194 -108 -10 -26 -45 -43 -90
-43 -16 0 -50 -13 -77 -29 -56 -35 -129 -55 -136 -37 -2 6 -5 -46 -5 -116 l-1
-128 149 0 c83 0 152 4 155 9 3 5 29 21 58 36 29 15 62 35 73 44 21 18 59 37
190 96 59 27 97 53 143 98 49 48 62 57 62 41 0 -11 -16 -35 -35 -54 -19 -19
-37 -49 -41 -67 -4 -19 -14 -35 -25 -38 -11 -4 -17 -11 -14 -16 3 -5 0 -7 -7
-4 -7 3 -26 -8 -43 -23 -16 -15 -44 -34 -61 -41 -18 -7 -44 -26 -60 -42 -38
-40 -88 -41 -102 -1 l-10 27 -1 -27 c-1 -16 -8 -28 -18 -31 -10 -3 403 -5 917
-5 549 -1 926 3 913 8 -12 5 -34 7 -50 4 -19 -3 -24 -2 -14 5 11 7 11 12 -2
31 -12 17 -13 28 -6 42 8 14 6 18 -8 19 -11 0 -13 3 -5 6 6 2 10 9 7 14 -3 4
2 20 11 34 15 23 15 25 0 19 -9 -3 -17 -1 -17 5 -1 6 -2 16 -3 22 0 7 -22 18
-48 26 -27 7 -48 19 -48 25 0 7 5 6 15 -2 13 -11 14 -10 9 4 -3 9 -14 16 -25
16 -10 0 -23 9 -29 20 -6 11 -15 18 -20 15 -4 -3 -18 10 -29 28 -11 19 -45 56
-74 83 l-53 50 -14 119 c-19 165 -17 279 4 340 9 27 15 59 11 72 -4 18 -2 21
12 16 11 -4 14 -3 9 5 -4 7 -2 12 3 12 6 0 11 -5 11 -11 0 -16 81 32 101 61
15 21 18 49 19 180 1 85 -1 205 -3 265 -3 61 -2 138 2 172 5 45 2 87 -10 149
-22 109 -33 139 -65 181 -14 18 -30 48 -36 66 -21 61 -67 122 -140 187 -90 81
-140 115 -197 135 -70 24 -71 16 -1 -18 36 -18 65 -37 65 -44 0 -7 6 -18 13
-24 17 -18 15 -29 -5 -29 -15 0 -16 2 -3 10 12 8 11 11 -8 16 -16 5 -20 10
-12 19 7 9 2 12 -22 13 -35 1 -108 30 -108 44 0 4 -6 8 -13 8 -7 0 -30 14 -51
32 -38 31 -51 35 -191 53 -37 5 -46 4 -35 -4 9 -7 10 -11 3 -11 -6 0 -15 5
-18 10 -3 6 -27 10 -53 10 -43 0 -45 -1 -26 -15z m84 -46 c0 -7 10 -9 25 -7
13 3 22 1 19 -4 -3 -5 -16 -8 -27 -7 -12 1 -30 -1 -40 -6 -17 -7 -34 -5 -71
11 -13 5 -17 4 -13 -3 8 -12 -38 -28 -68 -24 -11 2 -36 3 -55 3 -56 -1 -14 16
70 28 52 7 76 7 86 -1 10 -8 19 -7 36 5 26 19 38 20 38 5z m108 -50 c-21 -11
-38 -24 -38 -29 0 -6 -10 -10 -22 -10 -19 0 -15 6 22 30 25 16 52 30 60 30 8
-1 -2 -10 -22 -21z m27 -59 c-11 -5 -33 -9 -50 -9 -23 -1 -26 2 -15 9 8 5 31
9 50 9 29 0 31 -2 15 -9z m-175 -7 c-14 -3 -29 -9 -34 -14 -6 -5 -28 -8 -50
-8 -23 1 -32 4 -22 6 15 4 16 7 5 14 -9 5 12 8 56 7 39 0 59 -3 45 -5z m-160
-13 c-8 -5 -22 -9 -30 -9 -10 0 -8 3 5 9 27 12 43 12 25 0z m690 -85 c13 -14
21 -25 18 -25 -2 0 -15 11 -28 25 -13 14 -21 25 -18 25 2 0 15 -11 28 -25z
m-677 -2 c-7 -2 -19 -2 -25 0 -7 3 -2 5 12 5 14 0 19 -2 13 -5z m235 -290
c-10 -2 -18 -9 -18 -14 0 -13 24 -11 38 3 14 14 45 20 36 7 -3 -5 4 -9 15 -9
10 0 21 -5 23 -11 3 -9 9 -9 25 0 40 21 61 14 59 -19 -2 -36 -33 -62 -58 -49
-18 9 -61 7 -90 -6 -13 -5 -26 2 -48 25 -16 17 -34 29 -40 25 -6 -3 -7 0 -4 9
3 9 12 16 19 16 7 0 15 7 19 15 3 8 13 14 23 14 17 -1 17 -2 1 -6z m84 -268
c3 3 17 1 32 -4 21 -9 26 -8 26 4 0 19 9 19 32 -2 28 -25 22 -31 -29 -29 -53
2 -72 -12 -73 -54 l0 -25 -20 30 c-25 38 -13 109 14 86 7 -6 15 -8 18 -6z
m118 5 c0 -5 -4 -10 -10 -10 -5 0 -10 5 -10 10 0 6 5 10 10 10 6 0 10 -4 10
-10z m-244 -25 c8 -20 -9 -91 -21 -87 -6 2 -9 10 -7 17 1 8 -6 20 -17 26 -17
12 -18 15 -4 36 17 26 41 30 49 8z m-66 -4 c0 -17 -15 -19 -28 -5 -11 12 -9
14 8 14 11 0 20 -4 20 -9z m123 -28 c3 -21 8 -46 12 -57 6 -14 4 -17 -11 -14
-32 6 -47 108 -16 108 5 0 12 -17 15 -37z m324 -79 c-3 -3 -12 -4 -19 -1 -8 3
-5 6 6 6 11 1 17 -2 13 -5z m115 -221 c-15 -27 -44 -50 -72 -57 -23 -5 -23 -5
3 7 15 7 24 17 20 22 -5 4 -2 5 5 1 7 -4 15 0 19 11 8 23 25 45 30 39 3 -2 0
-13 -5 -23z m254 -33 c8 0 14 -7 14 -15 0 -20 -6 -19 -29 7 -11 11 -17 26 -13
32 4 7 8 4 10 -6 2 -10 10 -18 18 -18z m-276 -55 c-14 -8 -29 -14 -35 -14 -5
0 1 6 15 14 14 8 30 14 35 14 6 0 -1 -6 -15 -14z m60 -34 c0 -11 4 -21 9 -23
14 -5 13 -83 -2 -163 -10 -52 -15 -64 -19 -46 -4 13 -11 20 -17 16 -6 -3 -11
1 -11 9 0 9 -2 16 -4 16 -2 0 -11 3 -20 6 -29 11 -17 -20 14 -38 29 -16 42
-48 19 -48 -5 0 -7 -4 -4 -10 3 -5 1 -10 -5 -10 -6 0 -8 -5 -4 -12 8 -13 -12
-3 -39 20 -21 19 -35 8 -17 -13 8 -10 9 -15 1 -15 -18 0 -26 4 -24 13 2 4 0 7
-5 7 -4 0 -13 15 -21 33 -8 17 -25 42 -38 54 -13 12 -23 29 -23 38 0 8 -4 15
-9 15 -16 0 -19 39 -5 51 8 7 17 9 21 5 3 -3 15 1 25 11 17 15 19 15 37 -1 15
-14 19 -14 24 -3 3 8 0 20 -6 27 -9 10 -9 11 2 5 11 -6 13 -4 8 8 -4 10 0 18
12 22 10 3 26 14 36 25 24 26 65 27 65 1z m-417 -41 c11 -17 19 -19 38 -11 29
10 59 -6 59 -33 0 -22 -13 -20 -28 4 -17 28 -37 25 -69 -10 -31 -36 -49 -37
-80 -9 l-22 22 20 28 c24 34 61 38 82 9z m628 -64 c-9 -10 -27 -13 -61 -7 -3
1 11 9 30 20 35 19 52 12 31 -13z m-486 -216 c18 -8 17 -9 -7 -9 -15 -1 -30 4
-33 9 -7 12 12 12 40 0z m15 -75 c0 -2 -17 -13 -37 -23 -40 -19 -72 -20 -138
-4 l-40 10 35 2 c19 2 61 4 92 5 32 1 61 4 65 8 7 8 23 9 23 2z m43 -64 c-13
-11 -23 -26 -23 -35 0 -8 -9 -20 -19 -25 -15 -9 -20 -7 -24 9 -5 21 31 60 51
53 6 -3 12 0 12 6 0 6 6 11 13 11 6 -1 2 -9 -10 -19z m-668 -551 c-4 -17 -9
-29 -12 -26 -3 2 -2 19 2 36 4 17 9 29 12 26 3 -2 2 -19 -2 -36z m735 -36 c0
-2 -9 -4 -21 -4 -11 0 -18 4 -14 10 5 8 35 3 35 -6z m-50 -41 c0 -25 0 -26
-20 -8 -11 10 -20 21 -20 24 0 4 9 7 20 8 15 1 20 -4 20 -24z m-76 -40 c-22
-17 -25 -23 -11 -23 9 0 17 -5 17 -11 0 -15 60 -1 83 19 10 9 33 16 52 16 18
0 31 4 29 8 -3 4 3 8 13 8 25 -1 82 -52 64 -58 -11 -4 -11 -6 0 -13 8 -5 -72
-8 -191 -8 -113 1 -192 4 -176 8 16 3 31 12 34 20 3 9 0 12 -9 9 -45 -17 -61
-20 -55 -9 4 6 15 11 24 11 15 0 15 2 2 11 -12 8 -8 10 16 7 23 -3 31 0 30 11
-1 9 9 17 22 19 12 2 22 -1 22 -7 0 -6 -5 -11 -12 -11 -6 0 -9 -3 -6 -6 4 -3
19 1 35 10 24 13 25 15 8 17 -17 1 -16 2 5 8 36 10 38 -9 4 -36z m131 17 c-3
-5 -11 -10 -16 -10 -6 0 -7 5 -4 10 3 6 11 10 16 10 6 0 7 -4 4 -10z m125 -10
c0 -5 -4 -10 -9 -10 -6 0 -13 5 -16 10 -3 6 1 10 9 10 9 0 16 -4 16 -10z"/>
<path d="M1384 41 c4 -5 0 -12 -6 -15 -7 -3 -4 -5 6 -3 24 3 34 27 11 27 -9 0
-14 -4 -11 -9z"/>
<path d="M2445 325 c-33 -13 -88 -29 -122 -36 -54 -11 -63 -16 -63 -34 0 -36
43 -72 106 -91 33 -9 78 -25 102 -35 l42 -18 0 119 c0 66 -1 119 -2 119 -2 -1
-30 -12 -63 -24z"/>
<path d="M2185 70 c-3 -6 1 -7 9 -4 18 7 21 14 7 14 -6 0 -13 -4 -16 -10z"/>
<path d="M2317 56 c-4 -9 -3 -15 1 -15 4 1 15 1 26 0 15 -1 16 -3 6 -16 -7 -9
-16 -12 -19 -8 -8 11 -42 13 -36 3 3 -5 -3 -11 -12 -13 -10 -3 1 -5 25 -6 23
0 42 4 42 9 0 6 8 10 18 10 14 0 15 -2 2 -10 -11 -7 0 -10 39 -10 52 0 53 1
38 18 -12 13 -14 21 -6 29 7 7 5 12 -6 17 -10 4 -14 2 -9 -5 4 -8 -1 -9 -16
-4 -16 5 -20 4 -15 -5 6 -9 3 -9 -14 -1 -12 7 -26 9 -32 5 -6 -4 -15 -1 -19 6
-5 8 -9 8 -13 -4z"/>
</g>
</svg>
